<svg width="114" height="8" viewBox="0 0 114 8" fill="none" xmlns="http://www.w3.org/2000/svg">
<path d="M0.41036 4C0.41036 5.47276 1.60427 6.66667 3.07703 6.66667C4.54979 6.66667 5.74369 5.47276 5.74369 4C5.74369 2.52724 4.54979 1.33333 3.07703 1.33333C1.60427 1.33333 0.41036 2.52724 0.41036 4ZM3.07703 4.5H105.138V3.5H3.07703V4.5Z" fill="#DDDDDD"/>
<ellipse cx="109.141" cy="4" rx="2.0012" ry="2" fill="#DC3919"/>
<path d="M112.893 4C112.893 6.07093 111.214 7.75 109.141 7.75C107.068 7.75 105.389 6.07093 105.389 4C105.389 1.92907 107.068 0.25 109.141 0.25C111.214 0.25 112.893 1.92907 112.893 4Z" stroke="#DC3919" stroke-width="0.5"/>
</svg>
